<svg xmlns="http://www.w3.org/2000/svg" version="1.1"
     x="0" y="0" width="756" height="144" viewBox="0 0 756 144"
     enable-background="new 0 0 756 144" xml:space="preserve">
  <g transform="translate(-6.8432525,-348.28511)">
    <path fill="#010101" d="M762.841,
        420.287c0-33.135-26.733-59.999-60.002-59.999c-33.278,0-60,26.856-60,
        59.995c0,33.137,26.72,60.002,60,60.002C736.108,480.285,762.841,453.428,
        762.841,420.287z"/>
    <rect fill="#010101"
          x="90.842" y="360.288" width="612.004" height="119.997"/>
  </g>
  <g>
    <path fill="#010101" d="M144,72c0,39.833-32.165,72.004-71.996,72.004
        C32.171,144.004,0,111.832,0,72C0,32.166,32.171,0,72.004,0C111.833,0,
        144,32.166,144,72z"/>
  </g>
  <g transform="matrix(2.3015663,0,0,2.3015663,-4682.1881,-1078.9105)">
    <path fill="#FFFFFF" d="M2091.7,500.055c0-14.397-11.615-26.07-26.071-26.07
        c-14.458,0-26.068,11.673-26.068,26.07c0,14.4,11.61,26.067,26.068,26.067
        C2080.083,526.124,2091.7,514.454,2091.7,500.055z"/>
  </g>
  <g>
    <path fill="#010101" d="M107.673,37.867c2.268,0.247,4.023,0.47,3.639,2.183
        c-0.292,1.321-0.144,0.627-1.455,0.971c-6.449,1.685-6.804,12.782-7.767,
        20.632c-0.758,6.201-1.384,12.189-3.397,17.23c-4.507,11.285-10.595,
        16.045-22.571,18.934c0,8.734,0,17.473,0,26.213c-2.265,0-4.532,0-6.796,
        0c0-8.664,0-17.318,0-25.971c-12.118-3.336-19.06-8.68-23.06-20.631
        c-1.671-4.999-2.383-12.195-3.152-18.689
        c-0.783-6.601-1.776-16.048-6.794-17.718c-0.764-0.209-2.51,
        0.567-2.185-0.727c-0.612-2.081,1.149-1.929,2.425-2.186c6.507-1.311,
        12.247,0.982,14.805,5.342c3.025,5.155,2.978,14.16,3.885,22.567c1.474,
        13.684,2.79,25.268,14.076,28.398c0-18.934,0-37.862,0-56.791c2.264,0,
        4.531,0,6.796,0c0,18.847,0,37.699,0,56.549c14.278-3.07,13.111-23.375,
        15.291-39.559C92.784,44.417,95.411,36.52,107.673,37.867z"/>
  </g>
  <rect fill="none" x="156.004" y="39.996" width="546" height="44.005"/>
  <text transform="matrix(1 0 0 1 166.5786 75.4619)" fill="#FFFFFF"
        stroke="#FFFFFF" textLength="525" font-family="Lucida Grande"
        font-size="46" font-weight="bold">Predictive Science Inc.</text>
</svg>
